<svg xmlns="http://www.w3.org/2000/svg" width="320" height="365" viewBox="0 0 320 365"><rect width="100%" height="100%" fill="#ffffff"/><g transform="translate(0,0)"><rect x="93.66" y="31.22" width="7.80" height="7.80" rx="2.34" fill="#0369A1"/><rect x="101.46" y="31.22" width="7.80" height="7.80" rx="2.34" fill="#0369A1"/><rect x="124.88" y="31.22" width="7.80" height="7.80" rx="2.34" fill="#0369A1"/><rect x="140.49" y="31.22" width="7.80" height="7.80" rx="2.34" fill="#0369A1"/><rect x="156.10" y="31.22" width="7.80" height="7.80" rx="2.34" fill="#0369A1"/><rect x="179.51" y="31.22" width="7.80" height="7.80" rx="2.34" fill="#0369A1"/><rect x="187.32" y="31.22" width="7.80" height="7.80" rx="2.34" fill="#0369A1"/><rect x="195.12" y="31.22" width="7.80" height="7.80" rx="2.34" fill="#0369A1"/><rect x="93.66" y="39.02" width="7.80" height="7.80" rx="2.34" fill="#0369A1"/><rect x="109.27" y="39.02" width="7.80" height="7.80" rx="2.34" fill="#0369A1"/><rect x="124.88" y="39.02" width="7.80" height="7.80" rx="2.34" fill="#0369A1"/><rect x="140.49" y="39.02" width="7.80" height="7.80" rx="2.34" fill="#0369A1"/><rect x="156.10" y="39.02" width="7.80" height="7.80" rx="2.34" fill="#0369A1"/><rect x="163.90" y="39.02" width="7.80" height="7.80" rx="2.34" fill="#0369A1"/><rect x="202.93" y="39.02" width="7.80" height="7.80" rx="2.34" fill="#0369A1"/><rect x="210.73" y="39.02" width="7.80" height="7.80" rx="2.34" fill="#0369A1"/><rect x="109.27" y="46.83" width="7.80" height="7.80" rx="2.34" fill="#0369A1"/><rect x="117.07" y="46.83" width="7.80" height="7.80" rx="2.34" fill="#0369A1"/><rect x="124.88" y="46.83" width="7.80" height="7.80" rx="2.34" fill="#0369A1"/><rect x="132.68" y="46.83" width="7.80" height="7.80" rx="2.34" fill="#0369A1"/><rect x="140.49" y="46.83" width="7.80" height="7.80" rx="2.34" fill="#0369A1"/><rect x="148.29" y="46.83" width="7.80" height="7.80" rx="2.34" fill="#0369A1"/><rect x="156.10" y="46.83" width="7.80" height="7.80" rx="2.34" fill="#0369A1"/><rect x="171.71" y="46.83" width="7.80" height="7.80" rx="2.34" fill="#0369A1"/><rect x="210.73" y="46.83" width="7.80" height="7.80" rx="2.34" fill="#0369A1"/><rect x="93.66" y="54.63" width="7.80" height="7.80" rx="2.34" fill="#0369A1"/><rect x="124.88" y="54.63" width="7.80" height="7.80" rx="2.34" fill="#0369A1"/><rect x="148.29" y="54.63" width="7.80" height="7.80" rx="2.34" fill="#0369A1"/><rect x="171.71" y="54.63" width="7.80" height="7.80" rx="2.34" fill="#0369A1"/><rect x="210.73" y="54.63" width="7.80" height="7.80" rx="2.34" fill="#0369A1"/><rect x="218.54" y="54.63" width="7.80" height="7.80" rx="2.34" fill="#0369A1"/><rect x="109.27" y="62.44" width="7.80" height="7.80" rx="2.34" fill="#0369A1"/><rect x="156.10" y="62.44" width="7.80" height="7.80" rx="2.34" fill="#0369A1"/><rect x="163.90" y="62.44" width="7.80" height="7.80" rx="2.34" fill="#0369A1"/><rect x="171.71" y="62.44" width="7.80" height="7.80" rx="2.34" fill="#0369A1"/><rect x="202.93" y="62.44" width="7.80" height="7.80" rx="2.34" fill="#0369A1"/><rect x="218.54" y="62.44" width="7.80" height="7.80" rx="2.34" fill="#0369A1"/><rect x="117.07" y="70.24" width="7.80" height="7.80" rx="2.34" fill="#0369A1"/><rect x="124.88" y="70.24" width="7.80" height="7.80" rx="2.34" fill="#0369A1"/><rect x="132.68" y="70.24" width="7.80" height="7.80" rx="2.34" fill="#0369A1"/><rect x="148.29" y="70.24" width="7.80" height="7.80" rx="2.34" fill="#0369A1"/><rect x="156.10" y="70.24" width="7.80" height="7.80" rx="2.34" fill="#0369A1"/><rect x="171.71" y="70.24" width="7.80" height="7.80" rx="2.34" fill="#0369A1"/><rect x="195.12" y="70.24" width="7.80" height="7.80" rx="2.34" fill="#0369A1"/><rect x="202.93" y="70.24" width="7.80" height="7.80" rx="2.34" fill="#0369A1"/><rect x="218.54" y="70.24" width="7.80" height="7.80" rx="2.34" fill="#0369A1"/><rect x="93.66" y="78.05" width="7.80" height="7.80" rx="2.34" fill="#0369A1"/><rect x="109.27" y="78.05" width="7.80" height="7.80" rx="2.34" fill="#0369A1"/><rect x="124.88" y="78.05" width="7.80" height="7.80" rx="2.34" fill="#0369A1"/><rect x="140.49" y="78.05" width="7.80" height="7.80" rx="2.34" fill="#0369A1"/><rect x="156.10" y="78.05" width="7.80" height="7.80" rx="2.34" fill="#0369A1"/><rect x="171.71" y="78.05" width="7.80" height="7.80" rx="2.34" fill="#0369A1"/><rect x="187.32" y="78.05" width="7.80" height="7.80" rx="2.34" fill="#0369A1"/><rect x="202.93" y="78.05" width="7.80" height="7.80" rx="2.34" fill="#0369A1"/><rect x="218.54" y="78.05" width="7.80" height="7.80" rx="2.34" fill="#0369A1"/><rect x="93.66" y="85.85" width="7.80" height="7.80" rx="2.34" fill="#0369A1"/><rect x="117.07" y="85.85" width="7.80" height="7.80" rx="2.34" fill="#0369A1"/><rect x="124.88" y="85.85" width="7.80" height="7.80" rx="2.34" fill="#0369A1"/><rect x="140.49" y="85.85" width="7.80" height="7.80" rx="2.34" fill="#0369A1"/><rect x="148.29" y="85.85" width="7.80" height="7.80" rx="2.34" fill="#0369A1"/><rect x="156.10" y="85.85" width="7.80" height="7.80" rx="2.34" fill="#0369A1"/><rect x="163.90" y="85.85" width="7.80" height="7.80" rx="2.34" fill="#0369A1"/><rect x="179.51" y="85.85" width="7.80" height="7.80" rx="2.34" fill="#0369A1"/><rect x="202.93" y="85.85" width="7.80" height="7.80" rx="2.34" fill="#0369A1"/><rect x="31.22" y="93.66" width="7.80" height="7.80" rx="2.34" fill="#0369A1"/><rect x="46.83" y="93.66" width="7.80" height="7.80" rx="2.34" fill="#0369A1"/><rect x="54.63" y="93.66" width="7.80" height="7.80" rx="2.34" fill="#0369A1"/><rect x="70.24" y="93.66" width="7.80" height="7.80" rx="2.34" fill="#0369A1"/><rect x="78.05" y="93.66" width="7.80" height="7.80" rx="2.34" fill="#0369A1"/><rect x="85.85" y="93.66" width="7.80" height="7.80" rx="2.34" fill="#0369A1"/><rect x="101.46" y="93.66" width="7.80" height="7.80" rx="2.34" fill="#0369A1"/><rect x="117.07" y="93.66" width="7.80" height="7.80" rx="2.34" fill="#0369A1"/><rect x="140.49" y="93.66" width="7.80" height="7.80" rx="2.34" fill="#0369A1"/><rect x="148.29" y="93.66" width="7.80" height="7.80" rx="2.34" fill="#0369A1"/><rect x="163.90" y="93.66" width="7.80" height="7.80" rx="2.34" fill="#0369A1"/><rect x="187.32" y="93.66" width="7.80" height="7.80" rx="2.34" fill="#0369A1"/><rect x="195.12" y="93.66" width="7.80" height="7.80" rx="2.34" fill="#0369A1"/><rect x="218.54" y="93.66" width="7.80" height="7.80" rx="2.34" fill="#0369A1"/><rect x="234.15" y="93.66" width="7.80" height="7.80" rx="2.34" fill="#0369A1"/><rect x="257.56" y="93.66" width="7.80" height="7.80" rx="2.34" fill="#0369A1"/><rect x="273.17" y="93.66" width="7.80" height="7.80" rx="2.34" fill="#0369A1"/><rect x="280.98" y="93.66" width="7.80" height="7.80" rx="2.34" fill="#0369A1"/><rect x="31.22" y="101.46" width="7.80" height="7.80" rx="2.34" fill="#0369A1"/><rect x="39.02" y="101.46" width="7.80" height="7.80" rx="2.34" fill="#0369A1"/><rect x="62.44" y="101.46" width="7.80" height="7.80" rx="2.34" fill="#0369A1"/><rect x="70.24" y="101.46" width="7.80" height="7.80" rx="2.34" fill="#0369A1"/><rect x="93.66" y="101.46" width="7.80" height="7.80" rx="2.34" fill="#0369A1"/><rect x="132.68" y="101.46" width="7.80" height="7.80" rx="2.34" fill="#0369A1"/><rect x="156.10" y="101.46" width="7.80" height="7.80" rx="2.34" fill="#0369A1"/><rect x="163.90" y="101.46" width="7.80" height="7.80" rx="2.34" fill="#0369A1"/><rect x="179.51" y="101.46" width="7.80" height="7.80" rx="2.34" fill="#0369A1"/><rect x="187.32" y="101.46" width="7.80" height="7.80" rx="2.34" fill="#0369A1"/><rect x="210.73" y="101.46" width="7.80" height="7.80" rx="2.34" fill="#0369A1"/><rect x="218.54" y="101.46" width="7.80" height="7.80" rx="2.34" fill="#0369A1"/><rect x="226.34" y="101.46" width="7.80" height="7.80" rx="2.34" fill="#0369A1"/><rect x="273.17" y="101.46" width="7.80" height="7.80" rx="2.34" fill="#0369A1"/><rect x="280.98" y="101.46" width="7.80" height="7.80" rx="2.34" fill="#0369A1"/><rect x="39.02" y="109.27" width="7.80" height="7.80" rx="2.34" fill="#0369A1"/><rect x="62.44" y="109.27" width="7.80" height="7.80" rx="2.34" fill="#0369A1"/><rect x="78.05" y="109.27" width="7.80" height="7.80" rx="2.34" fill="#0369A1"/><rect x="101.46" y="109.27" width="7.80" height="7.80" rx="2.34" fill="#0369A1"/><rect x="124.88" y="109.27" width="7.80" height="7.80" rx="2.34" fill="#0369A1"/><rect x="132.68" y="109.27" width="7.80" height="7.80" rx="2.34" fill="#0369A1"/><rect x="156.10" y="109.27" width="7.80" height="7.80" rx="2.34" fill="#0369A1"/><rect x="171.71" y="109.27" width="7.80" height="7.80" rx="2.34" fill="#0369A1"/><rect x="195.12" y="109.27" width="7.80" height="7.80" rx="2.34" fill="#0369A1"/><rect x="210.73" y="109.27" width="7.80" height="7.80" rx="2.34" fill="#0369A1"/><rect x="218.54" y="109.27" width="7.80" height="7.80" rx="2.34" fill="#0369A1"/><rect x="249.76" y="109.27" width="7.80" height="7.80" rx="2.34" fill="#0369A1"/><rect x="280.98" y="109.27" width="7.80" height="7.80" rx="2.34" fill="#0369A1"/><rect x="46.83" y="117.07" width="7.80" height="7.80" rx="2.34" fill="#0369A1"/><rect x="54.63" y="117.07" width="7.80" height="7.80" rx="2.34" fill="#0369A1"/><rect x="70.24" y="117.07" width="7.80" height="7.80" rx="2.34" fill="#0369A1"/><rect x="85.85" y="117.07" width="7.80" height="7.80" rx="2.34" fill="#0369A1"/><rect x="109.27" y="117.07" width="7.80" height="7.80" rx="2.34" fill="#0369A1"/><rect x="117.07" y="117.07" width="7.80" height="7.80" rx="2.34" fill="#0369A1"/><rect x="156.10" y="117.07" width="7.80" height="7.80" rx="2.34" fill="#0369A1"/><rect x="163.90" y="117.07" width="7.80" height="7.80" rx="2.34" fill="#0369A1"/><rect x="179.51" y="117.07" width="7.80" height="7.80" rx="2.34" fill="#0369A1"/><rect x="210.73" y="117.07" width="7.80" height="7.80" rx="2.34" fill="#0369A1"/><rect x="226.34" y="117.07" width="7.80" height="7.80" rx="2.34" fill="#0369A1"/><rect x="257.56" y="117.07" width="7.80" height="7.80" rx="2.34" fill="#0369A1"/><rect x="273.17" y="117.07" width="7.80" height="7.80" rx="2.34" fill="#0369A1"/><rect x="31.22" y="124.88" width="7.80" height="7.80" rx="2.34" fill="#0369A1"/><rect x="39.02" y="124.88" width="7.80" height="7.80" rx="2.34" fill="#0369A1"/><rect x="54.63" y="124.88" width="7.80" height="7.80" rx="2.34" fill="#0369A1"/><rect x="70.24" y="124.88" width="7.80" height="7.80" rx="2.34" fill="#0369A1"/><rect x="78.05" y="124.88" width="7.80" height="7.80" rx="2.34" fill="#0369A1"/><rect x="85.85" y="124.88" width="7.80" height="7.80" rx="2.34" fill="#0369A1"/><rect x="93.66" y="124.88" width="7.80" height="7.80" rx="2.34" fill="#0369A1"/><rect x="101.46" y="124.88" width="7.80" height="7.80" rx="2.34" fill="#0369A1"/><rect x="109.27" y="124.88" width="7.80" height="7.80" rx="2.34" fill="#0369A1"/><rect x="117.07" y="124.88" width="7.80" height="7.80" rx="2.34" fill="#0369A1"/><rect x="140.49" y="124.88" width="7.80" height="7.80" rx="2.34" fill="#0369A1"/><rect x="156.10" y="124.88" width="7.80" height="7.80" rx="2.34" fill="#0369A1"/><rect x="187.32" y="124.88" width="7.80" height="7.80" rx="2.34" fill="#0369A1"/><rect x="241.95" y="124.88" width="7.80" height="7.80" rx="2.34" fill="#0369A1"/><rect x="265.37" y="124.88" width="7.80" height="7.80" rx="2.34" fill="#0369A1"/><rect x="273.17" y="124.88" width="7.80" height="7.80" rx="2.34" fill="#0369A1"/><rect x="280.98" y="124.88" width="7.80" height="7.80" rx="2.34" fill="#0369A1"/><rect x="31.22" y="132.68" width="7.80" height="7.80" rx="2.34" fill="#0369A1"/><rect x="46.83" y="132.68" width="7.80" height="7.80" rx="2.34" fill="#0369A1"/><rect x="62.44" y="132.68" width="7.80" height="7.80" rx="2.34" fill="#0369A1"/><rect x="70.24" y="132.68" width="7.80" height="7.80" rx="2.34" fill="#0369A1"/><rect x="85.85" y="132.68" width="7.80" height="7.80" rx="2.34" fill="#0369A1"/><rect x="101.46" y="132.68" width="7.80" height="7.80" rx="2.34" fill="#0369A1"/><rect x="140.49" y="132.68" width="7.80" height="7.80" rx="2.34" fill="#0369A1"/><rect x="187.32" y="132.68" width="7.80" height="7.80" rx="2.34" fill="#0369A1"/><rect x="202.93" y="132.68" width="7.80" height="7.80" rx="2.34" fill="#0369A1"/><rect x="218.54" y="132.68" width="7.80" height="7.80" rx="2.34" fill="#0369A1"/><rect x="226.34" y="132.68" width="7.80" height="7.80" rx="2.34" fill="#0369A1"/><rect x="241.95" y="132.68" width="7.80" height="7.80" rx="2.34" fill="#0369A1"/><rect x="257.56" y="132.68" width="7.80" height="7.80" rx="2.34" fill="#0369A1"/><rect x="280.98" y="132.68" width="7.80" height="7.80" rx="2.34" fill="#0369A1"/><rect x="39.02" y="140.49" width="7.80" height="7.80" rx="2.34" fill="#0369A1"/><rect x="54.63" y="140.49" width="7.80" height="7.80" rx="2.34" fill="#0369A1"/><rect x="78.05" y="140.49" width="7.80" height="7.80" rx="2.34" fill="#0369A1"/><rect x="101.46" y="140.49" width="7.80" height="7.80" rx="2.34" fill="#0369A1"/><rect x="117.07" y="140.49" width="7.80" height="7.80" rx="2.34" fill="#0369A1"/><rect x="132.68" y="140.49" width="7.80" height="7.80" rx="2.34" fill="#0369A1"/><rect x="163.90" y="140.49" width="7.80" height="7.80" rx="2.34" fill="#0369A1"/><rect x="179.51" y="140.49" width="7.80" height="7.80" rx="2.34" fill="#0369A1"/><rect x="187.32" y="140.49" width="7.80" height="7.80" rx="2.34" fill="#0369A1"/><rect x="202.93" y="140.49" width="7.80" height="7.80" rx="2.34" fill="#0369A1"/><rect x="241.95" y="140.49" width="7.80" height="7.80" rx="2.34" fill="#0369A1"/><rect x="265.37" y="140.49" width="7.80" height="7.80" rx="2.34" fill="#0369A1"/><rect x="31.22" y="148.29" width="7.80" height="7.80" rx="2.34" fill="#0369A1"/><rect x="39.02" y="148.29" width="7.80" height="7.80" rx="2.34" fill="#0369A1"/><rect x="46.83" y="148.29" width="7.80" height="7.80" rx="2.34" fill="#0369A1"/><rect x="70.24" y="148.29" width="7.80" height="7.80" rx="2.34" fill="#0369A1"/><rect x="85.85" y="148.29" width="7.80" height="7.80" rx="2.34" fill="#0369A1"/><rect x="93.66" y="148.29" width="7.80" height="7.80" rx="2.34" fill="#0369A1"/><rect x="109.27" y="148.29" width="7.80" height="7.80" rx="2.34" fill="#0369A1"/><rect x="117.07" y="148.29" width="7.80" height="7.80" rx="2.34" fill="#0369A1"/><rect x="124.88" y="148.29" width="7.80" height="7.80" rx="2.34" fill="#0369A1"/><rect x="140.49" y="148.29" width="7.80" height="7.80" rx="2.34" fill="#0369A1"/><rect x="148.29" y="148.29" width="7.80" height="7.80" rx="2.34" fill="#0369A1"/><rect x="195.12" y="148.29" width="7.80" height="7.80" rx="2.34" fill="#0369A1"/><rect x="202.93" y="148.29" width="7.80" height="7.80" rx="2.34" fill="#0369A1"/><rect x="226.34" y="148.29" width="7.80" height="7.80" rx="2.34" fill="#0369A1"/><rect x="234.15" y="148.29" width="7.80" height="7.80" rx="2.34" fill="#0369A1"/><rect x="241.95" y="148.29" width="7.80" height="7.80" rx="2.34" fill="#0369A1"/><rect x="249.76" y="148.29" width="7.80" height="7.80" rx="2.34" fill="#0369A1"/><rect x="265.37" y="148.29" width="7.80" height="7.80" rx="2.34" fill="#0369A1"/><rect x="273.17" y="148.29" width="7.80" height="7.80" rx="2.34" fill="#0369A1"/><rect x="280.98" y="148.29" width="7.80" height="7.80" rx="2.34" fill="#0369A1"/><rect x="62.44" y="156.10" width="7.80" height="7.80" rx="2.34" fill="#0369A1"/><rect x="78.05" y="156.10" width="7.80" height="7.80" rx="2.34" fill="#0369A1"/><rect x="93.66" y="156.10" width="7.80" height="7.80" rx="2.34" fill="#0369A1"/><rect x="109.27" y="156.10" width="7.80" height="7.80" rx="2.34" fill="#0369A1"/><rect x="132.68" y="156.10" width="7.80" height="7.80" rx="2.34" fill="#0369A1"/><rect x="140.49" y="156.10" width="7.80" height="7.80" rx="2.34" fill="#0369A1"/><rect x="163.90" y="156.10" width="7.80" height="7.80" rx="2.34" fill="#0369A1"/><rect x="171.71" y="156.10" width="7.80" height="7.80" rx="2.34" fill="#0369A1"/><rect x="187.32" y="156.10" width="7.80" height="7.80" rx="2.34" fill="#0369A1"/><rect x="195.12" y="156.10" width="7.80" height="7.80" rx="2.34" fill="#0369A1"/><rect x="202.93" y="156.10" width="7.80" height="7.80" rx="2.34" fill="#0369A1"/><rect x="218.54" y="156.10" width="7.80" height="7.80" rx="2.34" fill="#0369A1"/><rect x="226.34" y="156.10" width="7.80" height="7.80" rx="2.34" fill="#0369A1"/><rect x="234.15" y="156.10" width="7.80" height="7.80" rx="2.34" fill="#0369A1"/><rect x="241.95" y="156.10" width="7.80" height="7.80" rx="2.34" fill="#0369A1"/><rect x="249.76" y="156.10" width="7.80" height="7.80" rx="2.34" fill="#0369A1"/><rect x="265.37" y="156.10" width="7.80" height="7.80" rx="2.34" fill="#0369A1"/><rect x="273.17" y="156.10" width="7.80" height="7.80" rx="2.34" fill="#0369A1"/><rect x="280.98" y="156.10" width="7.80" height="7.80" rx="2.34" fill="#0369A1"/><rect x="31.22" y="163.90" width="7.80" height="7.80" rx="2.34" fill="#0369A1"/><rect x="46.83" y="163.90" width="7.80" height="7.80" rx="2.34" fill="#0369A1"/><rect x="54.63" y="163.90" width="7.80" height="7.80" rx="2.34" fill="#0369A1"/><rect x="85.85" y="163.90" width="7.80" height="7.80" rx="2.34" fill="#0369A1"/><rect x="101.46" y="163.90" width="7.80" height="7.80" rx="2.34" fill="#0369A1"/><rect x="148.29" y="163.90" width="7.80" height="7.80" rx="2.34" fill="#0369A1"/><rect x="171.71" y="163.90" width="7.80" height="7.80" rx="2.34" fill="#0369A1"/><rect x="187.32" y="163.90" width="7.80" height="7.80" rx="2.34" fill="#0369A1"/><rect x="195.12" y="163.90" width="7.80" height="7.80" rx="2.34" fill="#0369A1"/><rect x="202.93" y="163.90" width="7.80" height="7.80" rx="2.34" fill="#0369A1"/><rect x="218.54" y="163.90" width="7.80" height="7.80" rx="2.34" fill="#0369A1"/><rect x="249.76" y="163.90" width="7.80" height="7.80" rx="2.34" fill="#0369A1"/><rect x="257.56" y="163.90" width="7.80" height="7.80" rx="2.34" fill="#0369A1"/><rect x="273.17" y="163.90" width="7.80" height="7.80" rx="2.34" fill="#0369A1"/><rect x="280.98" y="163.90" width="7.80" height="7.80" rx="2.34" fill="#0369A1"/><rect x="31.22" y="171.71" width="7.80" height="7.80" rx="2.34" fill="#0369A1"/><rect x="39.02" y="171.71" width="7.80" height="7.80" rx="2.34" fill="#0369A1"/><rect x="70.24" y="171.71" width="7.80" height="7.80" rx="2.34" fill="#0369A1"/><rect x="78.05" y="171.71" width="7.80" height="7.80" rx="2.34" fill="#0369A1"/><rect x="117.07" y="171.71" width="7.80" height="7.80" rx="2.34" fill="#0369A1"/><rect x="124.88" y="171.71" width="7.80" height="7.80" rx="2.34" fill="#0369A1"/><rect x="132.68" y="171.71" width="7.80" height="7.80" rx="2.34" fill="#0369A1"/><rect x="140.49" y="171.71" width="7.80" height="7.80" rx="2.34" fill="#0369A1"/><rect x="148.29" y="171.71" width="7.80" height="7.80" rx="2.34" fill="#0369A1"/><rect x="156.10" y="171.71" width="7.80" height="7.80" rx="2.34" fill="#0369A1"/><rect x="171.71" y="171.71" width="7.80" height="7.80" rx="2.34" fill="#0369A1"/><rect x="187.32" y="171.71" width="7.80" height="7.80" rx="2.34" fill="#0369A1"/><rect x="234.15" y="171.71" width="7.80" height="7.80" rx="2.34" fill="#0369A1"/><rect x="241.95" y="171.71" width="7.80" height="7.80" rx="2.34" fill="#0369A1"/><rect x="273.17" y="171.71" width="7.80" height="7.80" rx="2.34" fill="#0369A1"/><rect x="31.22" y="179.51" width="7.80" height="7.80" rx="2.34" fill="#0369A1"/><rect x="39.02" y="179.51" width="7.80" height="7.80" rx="2.34" fill="#0369A1"/><rect x="54.63" y="179.51" width="7.80" height="7.80" rx="2.34" fill="#0369A1"/><rect x="85.85" y="179.51" width="7.80" height="7.80" rx="2.34" fill="#0369A1"/><rect x="101.46" y="179.51" width="7.80" height="7.80" rx="2.34" fill="#0369A1"/><rect x="109.27" y="179.51" width="7.80" height="7.80" rx="2.34" fill="#0369A1"/><rect x="117.07" y="179.51" width="7.80" height="7.80" rx="2.34" fill="#0369A1"/><rect x="140.49" y="179.51" width="7.80" height="7.80" rx="2.34" fill="#0369A1"/><rect x="156.10" y="179.51" width="7.80" height="7.80" rx="2.34" fill="#0369A1"/><rect x="163.90" y="179.51" width="7.80" height="7.80" rx="2.34" fill="#0369A1"/><rect x="171.71" y="179.51" width="7.80" height="7.80" rx="2.34" fill="#0369A1"/><rect x="179.51" y="179.51" width="7.80" height="7.80" rx="2.34" fill="#0369A1"/><rect x="202.93" y="179.51" width="7.80" height="7.80" rx="2.34" fill="#0369A1"/><rect x="241.95" y="179.51" width="7.80" height="7.80" rx="2.34" fill="#0369A1"/><rect x="273.17" y="179.51" width="7.80" height="7.80" rx="2.34" fill="#0369A1"/><rect x="280.98" y="179.51" width="7.80" height="7.80" rx="2.34" fill="#0369A1"/><rect x="39.02" y="187.32" width="7.80" height="7.80" rx="2.34" fill="#0369A1"/><rect x="62.44" y="187.32" width="7.80" height="7.80" rx="2.34" fill="#0369A1"/><rect x="70.24" y="187.32" width="7.80" height="7.80" rx="2.34" fill="#0369A1"/><rect x="78.05" y="187.32" width="7.80" height="7.80" rx="2.34" fill="#0369A1"/><rect x="93.66" y="187.32" width="7.80" height="7.80" rx="2.34" fill="#0369A1"/><rect x="117.07" y="187.32" width="7.80" height="7.80" rx="2.34" fill="#0369A1"/><rect x="124.88" y="187.32" width="7.80" height="7.80" rx="2.34" fill="#0369A1"/><rect x="156.10" y="187.32" width="7.80" height="7.80" rx="2.34" fill="#0369A1"/><rect x="179.51" y="187.32" width="7.80" height="7.80" rx="2.34" fill="#0369A1"/><rect x="202.93" y="187.32" width="7.80" height="7.80" rx="2.34" fill="#0369A1"/><rect x="210.73" y="187.32" width="7.80" height="7.80" rx="2.34" fill="#0369A1"/><rect x="241.95" y="187.32" width="7.80" height="7.80" rx="2.34" fill="#0369A1"/><rect x="31.22" y="195.12" width="7.80" height="7.80" rx="2.34" fill="#0369A1"/><rect x="46.83" y="195.12" width="7.80" height="7.80" rx="2.34" fill="#0369A1"/><rect x="62.44" y="195.12" width="7.80" height="7.80" rx="2.34" fill="#0369A1"/><rect x="70.24" y="195.12" width="7.80" height="7.80" rx="2.34" fill="#0369A1"/><rect x="85.85" y="195.12" width="7.80" height="7.80" rx="2.34" fill="#0369A1"/><rect x="93.66" y="195.12" width="7.80" height="7.80" rx="2.34" fill="#0369A1"/><rect x="101.46" y="195.12" width="7.80" height="7.80" rx="2.34" fill="#0369A1"/><rect x="117.07" y="195.12" width="7.80" height="7.80" rx="2.34" fill="#0369A1"/><rect x="140.49" y="195.12" width="7.80" height="7.80" rx="2.34" fill="#0369A1"/><rect x="148.29" y="195.12" width="7.80" height="7.80" rx="2.34" fill="#0369A1"/><rect x="156.10" y="195.12" width="7.80" height="7.80" rx="2.34" fill="#0369A1"/><rect x="187.32" y="195.12" width="7.80" height="7.80" rx="2.34" fill="#0369A1"/><rect x="195.12" y="195.12" width="7.80" height="7.80" rx="2.34" fill="#0369A1"/><rect x="210.73" y="195.12" width="7.80" height="7.80" rx="2.34" fill="#0369A1"/><rect x="234.15" y="195.12" width="7.80" height="7.80" rx="2.34" fill="#0369A1"/><rect x="241.95" y="195.12" width="7.80" height="7.80" rx="2.34" fill="#0369A1"/><rect x="265.37" y="195.12" width="7.80" height="7.80" rx="2.34" fill="#0369A1"/><rect x="273.17" y="195.12" width="7.80" height="7.80" rx="2.34" fill="#0369A1"/><rect x="62.44" y="202.93" width="7.80" height="7.80" rx="2.34" fill="#0369A1"/><rect x="78.05" y="202.93" width="7.80" height="7.80" rx="2.34" fill="#0369A1"/><rect x="109.27" y="202.93" width="7.80" height="7.80" rx="2.34" fill="#0369A1"/><rect x="148.29" y="202.93" width="7.80" height="7.80" rx="2.34" fill="#0369A1"/><rect x="163.90" y="202.93" width="7.80" height="7.80" rx="2.34" fill="#0369A1"/><rect x="179.51" y="202.93" width="7.80" height="7.80" rx="2.34" fill="#0369A1"/><rect x="187.32" y="202.93" width="7.80" height="7.80" rx="2.34" fill="#0369A1"/><rect x="195.12" y="202.93" width="7.80" height="7.80" rx="2.34" fill="#0369A1"/><rect x="202.93" y="202.93" width="7.80" height="7.80" rx="2.34" fill="#0369A1"/><rect x="210.73" y="202.93" width="7.80" height="7.80" rx="2.34" fill="#0369A1"/><rect x="218.54" y="202.93" width="7.80" height="7.80" rx="2.34" fill="#0369A1"/><rect x="234.15" y="202.93" width="7.80" height="7.80" rx="2.34" fill="#0369A1"/><rect x="249.76" y="202.93" width="7.80" height="7.80" rx="2.34" fill="#0369A1"/><rect x="257.56" y="202.93" width="7.80" height="7.80" rx="2.34" fill="#0369A1"/><rect x="273.17" y="202.93" width="7.80" height="7.80" rx="2.34" fill="#0369A1"/><rect x="280.98" y="202.93" width="7.80" height="7.80" rx="2.34" fill="#0369A1"/><rect x="39.02" y="210.73" width="7.80" height="7.80" rx="2.34" fill="#0369A1"/><rect x="46.83" y="210.73" width="7.80" height="7.80" rx="2.34" fill="#0369A1"/><rect x="85.85" y="210.73" width="7.80" height="7.80" rx="2.34" fill="#0369A1"/><rect x="93.66" y="210.73" width="7.80" height="7.80" rx="2.34" fill="#0369A1"/><rect x="109.27" y="210.73" width="7.80" height="7.80" rx="2.34" fill="#0369A1"/><rect x="117.07" y="210.73" width="7.80" height="7.80" rx="2.34" fill="#0369A1"/><rect x="124.88" y="210.73" width="7.80" height="7.80" rx="2.34" fill="#0369A1"/><rect x="132.68" y="210.73" width="7.80" height="7.80" rx="2.34" fill="#0369A1"/><rect x="140.49" y="210.73" width="7.80" height="7.80" rx="2.34" fill="#0369A1"/><rect x="148.29" y="210.73" width="7.80" height="7.80" rx="2.34" fill="#0369A1"/><rect x="187.32" y="210.73" width="7.80" height="7.80" rx="2.34" fill="#0369A1"/><rect x="202.93" y="210.73" width="7.80" height="7.80" rx="2.34" fill="#0369A1"/><rect x="226.34" y="210.73" width="7.80" height="7.80" rx="2.34" fill="#0369A1"/><rect x="241.95" y="210.73" width="7.80" height="7.80" rx="2.34" fill="#0369A1"/><rect x="249.76" y="210.73" width="7.80" height="7.80" rx="2.34" fill="#0369A1"/><rect x="280.98" y="210.73" width="7.80" height="7.80" rx="2.34" fill="#0369A1"/><rect x="31.22" y="218.54" width="7.80" height="7.80" rx="2.34" fill="#0369A1"/><rect x="46.83" y="218.54" width="7.80" height="7.80" rx="2.34" fill="#0369A1"/><rect x="54.63" y="218.54" width="7.80" height="7.80" rx="2.34" fill="#0369A1"/><rect x="78.05" y="218.54" width="7.80" height="7.80" rx="2.34" fill="#0369A1"/><rect x="85.85" y="218.54" width="7.80" height="7.80" rx="2.34" fill="#0369A1"/><rect x="93.66" y="218.54" width="7.80" height="7.80" rx="2.34" fill="#0369A1"/><rect x="124.88" y="218.54" width="7.80" height="7.80" rx="2.34" fill="#0369A1"/><rect x="140.49" y="218.54" width="7.80" height="7.80" rx="2.34" fill="#0369A1"/><rect x="163.90" y="218.54" width="7.80" height="7.80" rx="2.34" fill="#0369A1"/><rect x="171.71" y="218.54" width="7.80" height="7.80" rx="2.34" fill="#0369A1"/><rect x="179.51" y="218.54" width="7.80" height="7.80" rx="2.34" fill="#0369A1"/><rect x="202.93" y="218.54" width="7.80" height="7.80" rx="2.34" fill="#0369A1"/><rect x="218.54" y="218.54" width="7.80" height="7.80" rx="2.34" fill="#0369A1"/><rect x="226.34" y="218.54" width="7.80" height="7.80" rx="2.34" fill="#0369A1"/><rect x="234.15" y="218.54" width="7.80" height="7.80" rx="2.34" fill="#0369A1"/><rect x="241.95" y="218.54" width="7.80" height="7.80" rx="2.34" fill="#0369A1"/><rect x="249.76" y="218.54" width="7.80" height="7.80" rx="2.34" fill="#0369A1"/><rect x="257.56" y="218.54" width="7.80" height="7.80" rx="2.34" fill="#0369A1"/><rect x="273.17" y="218.54" width="7.80" height="7.80" rx="2.34" fill="#0369A1"/><rect x="280.98" y="218.54" width="7.80" height="7.80" rx="2.34" fill="#0369A1"/><rect x="93.66" y="226.34" width="7.80" height="7.80" rx="2.34" fill="#0369A1"/><rect x="117.07" y="226.34" width="7.80" height="7.80" rx="2.34" fill="#0369A1"/><rect x="124.88" y="226.34" width="7.80" height="7.80" rx="2.34" fill="#0369A1"/><rect x="140.49" y="226.34" width="7.80" height="7.80" rx="2.34" fill="#0369A1"/><rect x="148.29" y="226.34" width="7.80" height="7.80" rx="2.34" fill="#0369A1"/><rect x="156.10" y="226.34" width="7.80" height="7.80" rx="2.34" fill="#0369A1"/><rect x="171.71" y="226.34" width="7.80" height="7.80" rx="2.34" fill="#0369A1"/><rect x="195.12" y="226.34" width="7.80" height="7.80" rx="2.34" fill="#0369A1"/><rect x="218.54" y="226.34" width="7.80" height="7.80" rx="2.34" fill="#0369A1"/><rect x="249.76" y="226.34" width="7.80" height="7.80" rx="2.34" fill="#0369A1"/><rect x="257.56" y="226.34" width="7.80" height="7.80" rx="2.34" fill="#0369A1"/><rect x="265.37" y="226.34" width="7.80" height="7.80" rx="2.34" fill="#0369A1"/><rect x="93.66" y="234.15" width="7.80" height="7.80" rx="2.34" fill="#0369A1"/><rect x="101.46" y="234.15" width="7.80" height="7.80" rx="2.34" fill="#0369A1"/><rect x="109.27" y="234.15" width="7.80" height="7.80" rx="2.34" fill="#0369A1"/><rect x="117.07" y="234.15" width="7.80" height="7.80" rx="2.34" fill="#0369A1"/><rect x="124.88" y="234.15" width="7.80" height="7.80" rx="2.34" fill="#0369A1"/><rect x="140.49" y="234.15" width="7.80" height="7.80" rx="2.34" fill="#0369A1"/><rect x="156.10" y="234.15" width="7.80" height="7.80" rx="2.34" fill="#0369A1"/><rect x="163.90" y="234.15" width="7.80" height="7.80" rx="2.34" fill="#0369A1"/><rect x="171.71" y="234.15" width="7.80" height="7.80" rx="2.34" fill="#0369A1"/><rect x="179.51" y="234.15" width="7.80" height="7.80" rx="2.34" fill="#0369A1"/><rect x="187.32" y="234.15" width="7.80" height="7.80" rx="2.34" fill="#0369A1"/><rect x="195.12" y="234.15" width="7.80" height="7.80" rx="2.34" fill="#0369A1"/><rect x="210.73" y="234.15" width="7.80" height="7.80" rx="2.34" fill="#0369A1"/><rect x="218.54" y="234.15" width="7.80" height="7.80" rx="2.34" fill="#0369A1"/><rect x="234.15" y="234.15" width="7.80" height="7.80" rx="2.34" fill="#0369A1"/><rect x="249.76" y="234.15" width="7.80" height="7.80" rx="2.34" fill="#0369A1"/><rect x="257.56" y="234.15" width="7.80" height="7.80" rx="2.34" fill="#0369A1"/><rect x="93.66" y="241.95" width="7.80" height="7.80" rx="2.34" fill="#0369A1"/><rect x="124.88" y="241.95" width="7.80" height="7.80" rx="2.34" fill="#0369A1"/><rect x="140.49" y="241.95" width="7.80" height="7.80" rx="2.34" fill="#0369A1"/><rect x="163.90" y="241.95" width="7.80" height="7.80" rx="2.34" fill="#0369A1"/><rect x="171.71" y="241.95" width="7.80" height="7.80" rx="2.34" fill="#0369A1"/><rect x="179.51" y="241.95" width="7.80" height="7.80" rx="2.34" fill="#0369A1"/><rect x="187.32" y="241.95" width="7.80" height="7.80" rx="2.34" fill="#0369A1"/><rect x="218.54" y="241.95" width="7.80" height="7.80" rx="2.34" fill="#0369A1"/><rect x="249.76" y="241.95" width="7.80" height="7.80" rx="2.34" fill="#0369A1"/><rect x="265.37" y="241.95" width="7.80" height="7.80" rx="2.34" fill="#0369A1"/><rect x="273.17" y="241.95" width="7.80" height="7.80" rx="2.34" fill="#0369A1"/><rect x="101.46" y="249.76" width="7.80" height="7.80" rx="2.34" fill="#0369A1"/><rect x="109.27" y="249.76" width="7.80" height="7.80" rx="2.34" fill="#0369A1"/><rect x="124.88" y="249.76" width="7.80" height="7.80" rx="2.34" fill="#0369A1"/><rect x="132.68" y="249.76" width="7.80" height="7.80" rx="2.34" fill="#0369A1"/><rect x="156.10" y="249.76" width="7.80" height="7.80" rx="2.34" fill="#0369A1"/><rect x="163.90" y="249.76" width="7.80" height="7.80" rx="2.34" fill="#0369A1"/><rect x="171.71" y="249.76" width="7.80" height="7.80" rx="2.34" fill="#0369A1"/><rect x="179.51" y="249.76" width="7.80" height="7.80" rx="2.34" fill="#0369A1"/><rect x="202.93" y="249.76" width="7.80" height="7.80" rx="2.34" fill="#0369A1"/><rect x="210.73" y="249.76" width="7.80" height="7.80" rx="2.34" fill="#0369A1"/><rect x="218.54" y="249.76" width="7.80" height="7.80" rx="2.34" fill="#0369A1"/><rect x="226.34" y="249.76" width="7.80" height="7.80" rx="2.34" fill="#0369A1"/><rect x="234.15" y="249.76" width="7.80" height="7.80" rx="2.34" fill="#0369A1"/><rect x="241.95" y="249.76" width="7.80" height="7.80" rx="2.34" fill="#0369A1"/><rect x="249.76" y="249.76" width="7.80" height="7.80" rx="2.34" fill="#0369A1"/><rect x="265.37" y="249.76" width="7.80" height="7.80" rx="2.34" fill="#0369A1"/><rect x="93.66" y="257.56" width="7.80" height="7.80" rx="2.34" fill="#0369A1"/><rect x="101.46" y="257.56" width="7.80" height="7.80" rx="2.34" fill="#0369A1"/><rect x="117.07" y="257.56" width="7.80" height="7.80" rx="2.34" fill="#0369A1"/><rect x="124.88" y="257.56" width="7.80" height="7.80" rx="2.34" fill="#0369A1"/><rect x="140.49" y="257.56" width="7.80" height="7.80" rx="2.34" fill="#0369A1"/><rect x="156.10" y="257.56" width="7.80" height="7.80" rx="2.34" fill="#0369A1"/><rect x="163.90" y="257.56" width="7.80" height="7.80" rx="2.34" fill="#0369A1"/><rect x="179.51" y="257.56" width="7.80" height="7.80" rx="2.34" fill="#0369A1"/><rect x="202.93" y="257.56" width="7.80" height="7.80" rx="2.34" fill="#0369A1"/><rect x="210.73" y="257.56" width="7.80" height="7.80" rx="2.34" fill="#0369A1"/><rect x="241.95" y="257.56" width="7.80" height="7.80" rx="2.34" fill="#0369A1"/><rect x="249.76" y="257.56" width="7.80" height="7.80" rx="2.34" fill="#0369A1"/><rect x="273.17" y="257.56" width="7.80" height="7.80" rx="2.34" fill="#0369A1"/><rect x="280.98" y="257.56" width="7.80" height="7.80" rx="2.34" fill="#0369A1"/><rect x="93.66" y="265.37" width="7.80" height="7.80" rx="2.34" fill="#0369A1"/><rect x="109.27" y="265.37" width="7.80" height="7.80" rx="2.34" fill="#0369A1"/><rect x="117.07" y="265.37" width="7.80" height="7.80" rx="2.34" fill="#0369A1"/><rect x="124.88" y="265.37" width="7.80" height="7.80" rx="2.34" fill="#0369A1"/><rect x="132.68" y="265.37" width="7.80" height="7.80" rx="2.34" fill="#0369A1"/><rect x="148.29" y="265.37" width="7.80" height="7.80" rx="2.34" fill="#0369A1"/><rect x="156.10" y="265.37" width="7.80" height="7.80" rx="2.34" fill="#0369A1"/><rect x="163.90" y="265.37" width="7.80" height="7.80" rx="2.34" fill="#0369A1"/><rect x="171.71" y="265.37" width="7.80" height="7.80" rx="2.34" fill="#0369A1"/><rect x="187.32" y="265.37" width="7.80" height="7.80" rx="2.34" fill="#0369A1"/><rect x="195.12" y="265.37" width="7.80" height="7.80" rx="2.34" fill="#0369A1"/><rect x="202.93" y="265.37" width="7.80" height="7.80" rx="2.34" fill="#0369A1"/><rect x="218.54" y="265.37" width="7.80" height="7.80" rx="2.34" fill="#0369A1"/><rect x="101.46" y="273.17" width="7.80" height="7.80" rx="2.34" fill="#0369A1"/><rect x="117.07" y="273.17" width="7.80" height="7.80" rx="2.34" fill="#0369A1"/><rect x="163.90" y="273.17" width="7.80" height="7.80" rx="2.34" fill="#0369A1"/><rect x="187.32" y="273.17" width="7.80" height="7.80" rx="2.34" fill="#0369A1"/><rect x="202.93" y="273.17" width="7.80" height="7.80" rx="2.34" fill="#0369A1"/><rect x="210.73" y="273.17" width="7.80" height="7.80" rx="2.34" fill="#0369A1"/><rect x="218.54" y="273.17" width="7.80" height="7.80" rx="2.34" fill="#0369A1"/><rect x="226.34" y="273.17" width="7.80" height="7.80" rx="2.34" fill="#0369A1"/><rect x="234.15" y="273.17" width="7.80" height="7.80" rx="2.34" fill="#0369A1"/><rect x="249.76" y="273.17" width="7.80" height="7.80" rx="2.34" fill="#0369A1"/><rect x="257.56" y="273.17" width="7.80" height="7.80" rx="2.34" fill="#0369A1"/><rect x="280.98" y="273.17" width="7.80" height="7.80" rx="2.34" fill="#0369A1"/><rect x="93.66" y="280.98" width="7.80" height="7.80" rx="2.34" fill="#0369A1"/><rect x="117.07" y="280.98" width="7.80" height="7.80" rx="2.34" fill="#0369A1"/><rect x="140.49" y="280.98" width="7.80" height="7.80" rx="2.34" fill="#0369A1"/><rect x="156.10" y="280.98" width="7.80" height="7.80" rx="2.34" fill="#0369A1"/><rect x="171.71" y="280.98" width="7.80" height="7.80" rx="2.34" fill="#0369A1"/><rect x="179.51" y="280.98" width="7.80" height="7.80" rx="2.34" fill="#0369A1"/><rect x="187.32" y="280.98" width="7.80" height="7.80" rx="2.34" fill="#0369A1"/><rect x="210.73" y="280.98" width="7.80" height="7.80" rx="2.34" fill="#0369A1"/><rect x="226.34" y="280.98" width="7.80" height="7.80" rx="2.34" fill="#0369A1"/><rect x="234.15" y="280.98" width="7.80" height="7.80" rx="2.34" fill="#0369A1"/><rect x="257.56" y="280.98" width="7.80" height="7.80" rx="2.34" fill="#0369A1"/><rect x="265.37" y="280.98" width="7.80" height="7.80" rx="2.34" fill="#0369A1"/><path fill-rule="evenodd" fill="#0369A1" d="M46.52 31.22H70.56A15.30 15.30 0 0 1 85.85 46.52V70.56A15.30 15.30 0 0 1 70.56 85.85H46.52A15.30 15.30 0 0 1 31.22 70.56V46.52A15.30 15.30 0 0 1 46.52 31.22ZM49.73 39.02H67.34A10.71 10.71 0 0 1 78.05 49.73V67.34A10.71 10.71 0 0 1 67.34 78.05H49.73A10.71 10.71 0 0 1 39.02 67.34V49.73A10.71 10.71 0 0 1 49.73 39.02Z"/><path fill="#0369A1" d="M54.32 46.83H62.75A7.49 7.49 0 0 1 70.24 54.32V62.75A7.49 7.49 0 0 1 62.75 70.24H54.32A7.49 7.49 0 0 1 46.83 62.75V54.32A7.49 7.49 0 0 1 54.32 46.83Z"/><path fill-rule="evenodd" fill="#0369A1" d="M249.44 31.22H273.48A15.30 15.30 0 0 1 288.78 46.52V70.56A15.30 15.30 0 0 1 273.48 85.85H249.44A15.30 15.30 0 0 1 234.15 70.56V46.52A15.30 15.30 0 0 1 249.44 31.22ZM252.66 39.02H270.27A10.71 10.71 0 0 1 280.98 49.73V67.34A10.71 10.71 0 0 1 270.27 78.05H252.66A10.71 10.71 0 0 1 241.95 67.34V49.73A10.71 10.71 0 0 1 252.66 39.02Z"/><path fill="#0369A1" d="M257.25 46.83H265.68A7.49 7.49 0 0 1 273.17 54.32V62.75A7.49 7.49 0 0 1 265.68 70.24H257.25A7.49 7.49 0 0 1 249.76 62.75V54.32A7.49 7.49 0 0 1 257.25 46.83Z"/><path fill-rule="evenodd" fill="#0369A1" d="M46.52 234.15H70.56A15.30 15.30 0 0 1 85.85 249.44V273.48A15.30 15.30 0 0 1 70.56 288.78H46.52A15.30 15.30 0 0 1 31.22 273.48V249.44A15.30 15.30 0 0 1 46.52 234.15ZM49.73 241.95H67.34A10.71 10.71 0 0 1 78.05 252.66V270.27A10.71 10.71 0 0 1 67.34 280.98H49.73A10.71 10.71 0 0 1 39.02 270.27V252.66A10.71 10.71 0 0 1 49.73 241.95Z"/><path fill="#0369A1" d="M54.32 249.76H62.75A7.49 7.49 0 0 1 70.24 257.25V265.68A7.49 7.49 0 0 1 62.75 273.17H54.32A7.49 7.49 0 0 1 46.83 265.68V257.25A7.49 7.49 0 0 1 54.32 249.76Z"/></g><path fill="#0369A1" d="M0.00 320.00L320.00 320.00L320.00 365.00L0.00 365.00Z"/><text x="160.00" y="342.50" fill="#ffffff" font-family="Inter, system-ui, sans-serif" font-weight="700" font-size="19" text-anchor="middle" dominant-baseline="middle">WLAN</text></svg>